<?xml version="1.0" encoding="utf-8"?>
<!-- Generator: Adobe Illustrator 26.0.1, SVG Export Plug-In . SVG Version: 6.00 Build 0)  -->
<svg version="1.1" id="Layer_1" xmlns="http://www.w3.org/2000/svg" xmlns:xlink="http://www.w3.org/1999/xlink" x="0px" y="0px"
	 viewBox="0 0 134 26" style="enable-background:new 0 0 134 26;" xml:space="preserve">
<style type="text/css">
	.st0{fill-rule:evenodd;clip-rule:evenodd;fill:#8957C8;}
	.st1{fill:url(#SVGID_1_);}
	.st2{fill-rule:evenodd;clip-rule:evenodd;fill:#704AD5;}
	.st3{fill:url(#SVGID_00000041992638943054076480000016577504187818978977_);}
	.st4{fill-rule:evenodd;clip-rule:evenodd;fill:#A47ED8;}
	.st5{fill-rule:evenodd;clip-rule:evenodd;fill:#B89AE3;}
	.st6{fill-rule:evenodd;clip-rule:evenodd;fill:#9D74D4;}
	.st7{fill-rule:evenodd;clip-rule:evenodd;fill:#8958C8;}
	.st8{enable-background:new    ;}
	.st9{fill:#5C34A2;}
	.st10{fill-rule:evenodd;clip-rule:evenodd;fill:#5C34A2;}
</style>
<g>
	<path class="st0" d="M29.7,1.2c-1.8,0-2.1,0.6-3.9,1c1-2.1,3.5-2.9,5.6-1.9c0.7,0.4,1.3,0.9,1.7,1.7C32.1,1.5,30.9,1.2,29.7,1.2z
		 M7.6,2.3c1.1-2,3.6-2.8,5.6-1.8c0.8,0.4,1.4,1,1.8,1.8c-1.6-0.5-1.9-1-3.6-1C10.1,1.2,8.8,1.6,7.6,2.3z"/>
	
		<linearGradient id="SVGID_1_" gradientUnits="userSpaceOnUse" x1="-456.3811" y1="331.754" x2="-455.3811" y2="331.754" gradientTransform="matrix(25.53 0 0 2.3 11658.7207 -761.93)">
		<stop  offset="0" style="stop-color:#7E49C2"/>
		<stop  offset="0.5" style="stop-color:#C4AAEA"/>
		<stop  offset="1" style="stop-color:#7E49C2"/>
	</linearGradient>
	<path class="st1" d="M29.7,1.2c-1.8,0-2.1,0.6-3.9,1c1-2.1,3.5-2.9,5.6-1.9c0.7,0.4,1.3,0.9,1.7,1.7C32.1,1.5,30.9,1.2,29.7,1.2z
		 M7.6,2.3c1.1-2,3.6-2.8,5.6-1.8c0.8,0.4,1.4,1,1.8,1.8c-1.6-0.5-1.9-1-3.6-1C10.1,1.2,8.8,1.6,7.6,2.3z"/>
	<path class="st2" d="M37.4,13.7c-1.9-3.1-6.1-4.1-9.2-2.2c-1.7,1-2.8,2.8-3.1,4.8l-4.7,1l0,0l-4.7-1c-0.5-3.7-3.9-6.2-7.5-5.7
		c-2,0.3-3.8,1.4-4.8,3.1l-2-0.4l3.4-7.3c1.3-2.4,3.8-3.9,6.5-3.8c2.4,0,2.1,1.1,6.7,1.5c0,1.3,1,2.5,2.4,2.5l0,0
		c1.4-0.1,2.4-1.2,2.4-2.5c4.6-0.5,4.3-1.5,6.7-1.5c2.7,0,5.2,1.5,6.5,3.8l3.5,7.3L37.4,13.7z M20.4,12.2c-0.9,0-1.7,0.8-1.7,1.7
		s0.8,1.7,1.7,1.7c0.9,0,1.7-0.8,1.7-1.7c0,0,0,0,0,0C22.1,13,21.4,12.2,20.4,12.2L20.4,12.2z"/>
	
		<linearGradient id="SVGID_00000108995692245059141980000016190209535711774361_" gradientUnits="userSpaceOnUse" x1="-462.5271" y1="49.9113" x2="-461.5271" y2="49.9113" gradientTransform="matrix(38.13 0 0 15.16 17637.9492 -746.97)">
		<stop  offset="0" style="stop-color:#7E49C2"/>
		<stop  offset="0.5" style="stop-color:#C4AAEA"/>
		<stop  offset="1" style="stop-color:#7E49C2"/>
	</linearGradient>
	<path style="fill:url(#SVGID_00000108995692245059141980000016190209535711774361_);" d="M37.4,13.7c-1.9-3.1-6.1-4.1-9.2-2.2
		c-1.7,1-2.8,2.8-3.1,4.8l-4.7,1l0,0l-4.7-1c-0.5-3.7-3.9-6.2-7.5-5.7c-2,0.3-3.8,1.4-4.8,3.1l-2-0.4l3.4-7.3
		c1.3-2.4,3.8-3.9,6.5-3.8c2.4,0,2.1,1.1,6.7,1.5c0,1.3,1,2.5,2.4,2.5l0,0c1.4-0.1,2.4-1.2,2.4-2.5c4.6-0.5,4.3-1.5,6.7-1.5
		c2.7,0,5.2,1.5,6.5,3.8l3.5,7.3L37.4,13.7z M20.4,12.2c-0.9,0-1.7,0.8-1.7,1.7s0.8,1.7,1.7,1.7c0.9,0,1.7-0.8,1.7-1.7c0,0,0,0,0,0
		C22.1,13,21.4,12.2,20.4,12.2L20.4,12.2z"/>
	<path class="st4" d="M23.4,18.1c-1-0.1-2-0.2-3-0.2c-1,0-2,0.1-2.9,0.2l-2.7-7.4c1.9-0.3,3.7-0.5,5.6-0.5c1.9,0,3.7,0.2,5.6,0.5
		L23.4,18.1z M20.5,12.2c-0.9,0-1.7,0.8-1.7,1.7s0.8,1.7,1.7,1.7c0.9,0,1.7-0.8,1.7-1.7c0,0,0,0,0,0C22.2,13,21.4,12.2,20.5,12.2
		C20.5,12.2,20.5,12.2,20.5,12.2L20.5,12.2z"/>
	<path class="st5" d="M20.4,16.4c-1.4,0-2.5-1.1-2.5-2.4s1.1-2.5,2.4-2.5c1.4,0,2.5,1.1,2.5,2.4c0,0,0,0,0,0
		C22.9,15.3,21.8,16.4,20.4,16.4z M20.4,12.2c-0.9,0-1.7,0.8-1.7,1.7s0.8,1.7,1.7,1.7c0.9,0,1.7-0.8,1.7-1.7c0,0,0,0,0,0
		C22.1,13,21.4,12.2,20.4,12.2L20.4,12.2z"/>
	<path class="st6" d="M15.8,4.5v4.8h9.4V4.5l-1.2,0.3c-0.6,1.4-2,2.4-3.5,2.5c-1.5-0.1-2.9-1.1-3.5-2.5L15.8,4.5z"/>
	<path class="st7" d="M31.8,26c-4.8,0.1-8.8-3.8-8.9-8.7s3.8-8.8,8.7-8.9c4.8-0.1,8.8,3.8,8.9,8.7c0,0,0,0.1,0,0.1
		C40.5,22,36.6,26,31.8,26C31.8,26,31.8,26,31.8,26z M31.8,10.5c-3.7-0.1-6.8,2.9-6.9,6.7c-0.1,3.7,2.9,6.8,6.7,6.9s6.8-2.9,6.9-6.7
		c0,0,0-0.1,0-0.1C38.4,13.5,35.5,10.5,31.8,10.5z"/>
	<path class="st7" d="M9.1,26c-4.8,0.1-8.8-3.8-8.9-8.7C0.2,12.5,4,8.5,8.9,8.5c4.8-0.1,8.8,3.8,8.9,8.7c0,0,0,0.1,0,0.1
		C17.8,22,13.9,26,9.1,26C9.1,26,9.1,26,9.1,26z M9.1,10.5c-3.7,0-6.8,3-6.8,6.7S5.2,24,9,24c3.7,0,6.8-3,6.8-6.7c0,0,0,0,0-0.1
		C15.8,13.5,12.8,10.5,9.1,10.5L9.1,10.5z"/>
	<g class="st8">
		<path class="st9" d="M52.8,18.1h-2.5l-1.8-2.4h-3.9v2.4h-2v-4.4h6.9c0.4,0,0.7-0.1,0.9-0.4c0.3-0.3,0.4-0.6,0.4-0.9
			c0-0.4-0.1-0.7-0.4-0.9c-0.3-0.3-0.6-0.4-0.9-0.4h-6.9v-2l6.9,0c0.5,0,0.9,0.1,1.3,0.3c0.8,0.4,1.4,1,1.8,1.8
			c0.2,0.4,0.3,0.9,0.3,1.3c0,0.4-0.1,0.9-0.3,1.3c-0.4,0.8-0.9,1.4-1.7,1.7L52.8,18.1z"/>
		<path class="st9" d="M65.1,18.1h-2.3l-3.6-6.5l-3.6,6.5h-2.3l5.1-9H60L65.1,18.1z"/>
	</g>
	<g class="st8">
		<path class="st9" d="M77.6,18.1h-2v-5.9l-3.1,4.4h-1.7l-3.1-4.4v5.9h-2v-9H68l3.7,5.2l3.7-5.2h2.3V18.1z"/>
	</g>
	<g class="st8">
		<path class="st9" d="M90,18.1h-2.3L84,11.6l-3.6,6.5h-2.3l5.1-9h1.8L90,18.1z"/>
	</g>
	<g class="st8">
		<path class="st9" d="M97,18.1h-4.4c-0.4,0-0.8-0.1-1.1-0.2c-0.7-0.3-1.2-0.8-1.6-1.5c-0.2-0.3-0.2-0.7-0.2-1.1h2
			c0,0.2,0,0.3,0.1,0.4c0.1,0.1,0.2,0.2,0.4,0.2c0.1,0.1,0.3,0.1,0.4,0.1H97c0.1,0,0.3,0,0.4-0.1c0.1-0.1,0.3-0.1,0.4-0.2
			c0.1-0.1,0.1-0.2,0.1-0.4c0-0.2,0-0.3-0.1-0.4c-0.1-0.1-0.2-0.2-0.4-0.3c-0.1-0.1-0.3-0.1-0.4-0.1h-4.4c-0.4,0-0.8-0.1-1.1-0.2
			c-0.7-0.3-1.2-0.8-1.6-1.5c-0.2-0.3-0.2-0.7-0.2-1.1c0-0.4,0.1-0.8,0.2-1.1c0.3-0.7,0.9-1.2,1.6-1.5c0.4-0.1,0.7-0.2,1.1-0.2H97
			c0.4,0,0.8,0.1,1.1,0.2c0.7,0.3,1.2,0.8,1.6,1.5c0.2,0.3,0.2,0.7,0.2,1.1h-2c0-0.2,0-0.3-0.1-0.4c-0.1-0.1-0.2-0.2-0.4-0.3
			c-0.1-0.1-0.3-0.1-0.4-0.1h-4.4c-0.1,0-0.3,0-0.4,0.1c-0.1,0.1-0.3,0.1-0.4,0.3s-0.1,0.2-0.1,0.4c0,0.2,0,0.3,0.1,0.4
			c0.1,0.1,0.2,0.2,0.4,0.2c0.1,0.1,0.3,0.1,0.4,0.1H97c0.4,0,0.8,0.1,1.1,0.2c0.7,0.3,1.2,0.8,1.6,1.5c0.2,0.3,0.2,0.7,0.2,1.1
			c0,0.4-0.1,0.8-0.2,1.1c-0.3,0.7-0.9,1.2-1.6,1.5C97.7,18,97.3,18.1,97,18.1z"/>
	</g>
	<g class="st8">
		<path class="st9" d="M108.5,18.1h-4.4c-0.4,0-0.8-0.1-1.1-0.2c-0.7-0.3-1.3-0.8-1.6-1.6c-0.2-0.4-0.2-0.7-0.2-1.1v-3.1
			c0-0.4,0.1-0.8,0.2-1.1c0.3-0.7,0.8-1.2,1.6-1.6c0.4-0.2,0.7-0.2,1.1-0.2h4.4c0.4,0,0.8,0.1,1.1,0.2c0.7,0.3,1.2,0.8,1.6,1.6
			c0.2,0.4,0.2,0.7,0.2,1.1h-2c0-0.3-0.1-0.5-0.3-0.6s-0.4-0.3-0.7-0.3h-4.4c-0.3,0-0.5,0.1-0.7,0.3c-0.2,0.2-0.3,0.4-0.3,0.6v3.1
			c0,0.3,0.1,0.5,0.3,0.6c0.2,0.2,0.4,0.3,0.7,0.3h4.4c0.3,0,0.5-0.1,0.7-0.3c0.2-0.2,0.3-0.4,0.3-0.6h2c0,0.4-0.1,0.8-0.2,1.1
			c-0.3,0.7-0.8,1.2-1.6,1.6C109.3,18,108.9,18.1,108.5,18.1z"/>
	</g>
	<g class="st8">
		<path class="st9" d="M123.1,18.1h-2.3l-3.6-6.5l-3.6,6.5h-2.3l5.1-9h1.8L123.1,18.1z"/>
	</g>
	<g class="st8">
		<path class="st9" d="M133.8,18.1h-2.5l-5.8-6.5v6.5h-2v-9h2.4l5.8,6.5V9.1h2V18.1z"/>
	</g>
	<path class="st10" d="M6.4,13.2c0.7-0.5,1.6-0.8,2.5-0.8v1.9c-0.5,0-0.9,0.2-1.4,0.4L6.4,13.2z"/>
	<path class="st10" d="M4.6,15.6c0.3-0.8,0.8-1.6,1.5-2.1L7.2,15c-0.4,0.3-0.6,0.7-0.8,1.2L4.6,15.6z"/>
	<path class="st10" d="M4.4,18.6c-0.2-0.8-0.2-1.7,0-2.6l1.8,0.6c-0.1,0.5-0.1,1,0,1.4L4.4,18.6z"/>
	<path class="st10" d="M6.1,21.1c-0.7-0.6-1.2-1.3-1.5-2.1l1.9-0.6c0.2,0.5,0.5,0.9,0.8,1.2L6.1,21.1z"/>
	<path class="st10" d="M8.9,22.1c-0.9,0-1.7-0.3-2.5-0.8l1.1-1.6C8,20,8.4,20.1,8.9,20.2L8.9,22.1z"/>
	<path class="st10" d="M11.8,21.3c-0.7,0.5-1.6,0.8-2.5,0.8v-1.9c0.5,0,0.9-0.2,1.4-0.4L11.8,21.3z"/>
	<path class="st10" d="M13.6,18.9c-0.3,0.8-0.8,1.6-1.5,2.1L11,19.5c0.4-0.3,0.7-0.7,0.8-1.2L13.6,18.9z"/>
	<path class="st10" d="M13.8,16c0.2,0.9,0.2,1.8,0,2.6L11.9,18c0.1-0.5,0.1-1,0-1.4L13.8,16z"/>
	<path class="st10" d="M12.1,13.5c0.7,0.5,1.2,1.3,1.5,2.1l-1.8,0.6c-0.2-0.5-0.5-0.9-0.8-1.2L12.1,13.5z"/>
	<path class="st10" d="M9.3,12.4c0.9,0,1.7,0.3,2.5,0.8l-1.1,1.6c-0.4-0.3-0.9-0.4-1.4-0.4L9.3,12.4z"/>
	<path class="st10" d="M29.1,13.2c0.7-0.5,1.6-0.8,2.5-0.8v1.9c-0.5,0-0.9,0.2-1.4,0.4L29.1,13.2z"/>
	<path class="st10" d="M27.2,15.6c0.3-0.8,0.8-1.6,1.5-2.1l1.1,1.5c-0.4,0.3-0.7,0.7-0.8,1.2L27.2,15.6z"/>
	<path class="st10" d="M27.1,18.6c-0.2-0.9-0.2-1.8,0-2.6l1.8,0.6c-0.1,0.5-0.1,1,0,1.4L27.1,18.6z"/>
	<path class="st10" d="M28.8,21.1c-0.7-0.5-1.2-1.3-1.5-2.1l1.8-0.6c0.2,0.4,0.5,0.8,0.8,1.2L28.8,21.1z"/>
	<path class="st10" d="M31.6,22.1c-0.9,0-1.8-0.3-2.5-0.8l1.1-1.6c0.4,0.3,0.9,0.4,1.4,0.4V22.1z"/>
	<path class="st10" d="M34.4,21.3c-0.7,0.5-1.6,0.8-2.5,0.8v-1.9c0.5,0,0.9-0.2,1.4-0.4L34.4,21.3z"/>
	<path class="st10" d="M36.3,18.9c-0.3,0.8-0.8,1.6-1.5,2.1l-1.1-1.6c0.4-0.3,0.6-0.7,0.8-1.2L36.3,18.9z"/>
	<path class="st10" d="M36.4,16c0.2,0.9,0.2,1.8,0,2.6L34.6,18c0.1-0.5,0.1-1,0-1.4L36.4,16z"/>
	<path class="st10" d="M34.8,13.5c0.7,0.6,1.2,1.3,1.5,2.1l-1.8,0.6c-0.2-0.5-0.5-0.9-0.8-1.2L34.8,13.5z"/>
	<path class="st10" d="M31.9,12.4c0.9,0,1.8,0.3,2.5,0.8l-1.1,1.6c-0.4-0.2-0.9-0.4-1.4-0.4V12.4z"/>
</g>
</svg>
